<?xml version="1.0" standalone="no"?>
<!DOCTYPE svg PUBLIC "-//W3C//DTD SVG 20010904//EN"
 "http://www.w3.org/TR/2001/REC-SVG-20010904/DTD/svg10.dtd">
<svg version="1.0" xmlns="http://www.w3.org/2000/svg"
 width="512.000000pt" height="512.000000pt" viewBox="0 0 512.000000 512.000000"
 preserveAspectRatio="xMidYMid meet">
 
<g transform="translate(0.000000,512.000000) scale(0.100000,-0.100000)"
fill="#000000" stroke="none">
<path d="M473 4313 c-51 -18 -121 -83 -148 -138 -19 -39 -20 -63 -20 -800 0
-759 0 -760 23 -864 60 -267 182 -491 373 -683 l97 -97 -278 -3 -277 -3 -69
-35 c-198 -101 -233 -359 -68 -509 65 -59 124 -81 219 -81 l72 0 31 -62 c58
-118 143 -192 263 -229 59 -18 117 -19 1604 -19 1510 0 1544 0 1607 20 73 22
161 81 202 134 15 20 40 63 56 95 l30 59 87 4 c105 4 163 29 225 96 60 65 82
122 82 212 0 128 -66 233 -184 289 -55 26 -57 26 -332 29 l-278 3 91 90 91 89
58 0 c79 0 210 24 305 56 409 137 706 489 770 914 20 132 20 568 0 665 -32
152 -152 318 -285 392 -109 62 -168 75 -356 80 l-171 5 -6 57 c-8 97 -68 184
-153 227 -38 18 -77 19 -1423 22 l-1384 2 -24 -22 c-31 -29 -30 -72 2 -103
l24 -25 1366 0 1365 0 38 -34 37 -34 3 -272 3 -272 -53 6 c-165 20 -269 60
-468 180 -80 48 -172 100 -205 116 -146 70 -364 108 -552 96 -216 -13 -360
-60 -566 -184 -274 -165 -375 -200 -597 -209 -254 -10 -405 34 -651 188 -180
113 -344 178 -484 194 -33 3 -73 9 -89 12 l-28 5 4 69 c3 62 7 73 36 102 l32
32 286 5 c286 5 286 5 305 29 25 30 24 62 -2 95 l-20 26 -287 -1 c-228 0 -296
-4 -329 -16z m4147 -459 c165 -37 291 -161 335 -331 18 -70 21 -488 4 -609
-20 -143 -75 -289 -158 -414 -49 -75 -173 -203 -246 -255 -117 -83 -285 -154
-410 -172 l-60 -9 62 125 c57 113 67 127 98 138 177 61 353 225 435 407 57
125 62 161 67 441 3 172 1 275 -6 301 -16 61 -63 118 -118 145 -42 21 -65 24
-190 27 l-143 4 0 109 0 109 131 0 c82 0 155 -6 199 -16z m-3956 -75 c99 -29
156 -57 290 -138 303 -184 461 -230 753 -218 256 10 353 43 650 220 78 46 171
96 206 110 192 77 475 85 682 20 96 -30 146 -55 283 -139 210 -130 340 -182
515 -205 l99 -13 -5 -395 c-3 -320 -7 -409 -20 -466 -44 -186 -118 -350 -217
-484 -74 -99 -210 -228 -306 -291 l-77 -50 -206 0 -206 1 30 22 c70 52 79 63
79 102 0 75 -73 98 -140 44 -54 -43 -150 -95 -220 -120 -113 -39 -196 -49
-416 -49 l-211 0 6 233 c5 255 16 319 76 451 88 196 266 356 474 427 101 34
234 49 449 49 l160 0 -4 -242 c-5 -228 -7 -249 -32 -333 -15 -49 -43 -118 -62
-153 -48 -88 -44 -127 15 -152 24 -9 35 -9 57 2 33 16 85 106 119 208 47 142
55 211 55 501 l0 270 -25 24 -24 25 -250 0 c-137 0 -285 -5 -327 -11 -314 -43
-591 -242 -731 -524 -17 -33 -36 -78 -43 -100 -7 -22 -16 -43 -19 -48 -4 -4
-26 16 -50 45 -61 77 -145 143 -236 188 -135 67 -179 75 -433 75 -286 0 -262
22 -262 -240 0 -206 12 -298 50 -395 34 -85 88 -167 156 -237 l62 -63 -169 0
-168 0 -91 61 c-218 146 -395 384 -475 639 -51 162 -55 227 -55 831 l0 555 73
-8 c39 -5 103 -18 141 -29z m3908 -309 l30 -30 -4 -253 c-4 -203 -8 -263 -22
-307 -45 -140 -141 -271 -250 -342 -33 -21 -61 -37 -63 -35 -1 2 4 48 12 103
11 75 15 195 15 497 l0 397 126 0 126 0 30 -30z m-2892 -979 c152 -48 275
-155 341 -296 47 -102 59 -166 59 -332 l0 -133 -137 0 c-239 0 -355 40 -479
164 -74 74 -119 147 -148 246 -18 58 -34 333 -22 365 6 17 20 18 164 12 117
-4 174 -11 222 -26z m2656 -930 c123 -56 135 -222 22 -291 -33 -20 -55 -20
-2063 -20 -2008 0 -2030 0 -2063 20 -61 38 -94 121 -74 189 13 42 64 94 107
109 20 7 668 11 2030 11 1926 1 2002 0 2041 -18z m-327 -488 c-35 -47 -78 -87
-114 -106 l-40 -22 -1540 -3 c-1726 -3 -1596 -8 -1682 71 -25 23 -49 49 -54
59 -9 17 53 18 1717 18 1643 0 1726 -1 1713 -17z"/>
</g>
</svg>
